<?xml version="1.0" encoding="UTF-8"?>
<svg version="1.1" xmlns="http://www.w3.org/2000/svg" width="512" height="512">
<path d="M0 0 C0.72565305 -0.05433642 1.45130609 -0.10867283 2.19894862 -0.1646558 C22.36341002 -1.65467675 42.54921954 -2.56124757 62.75830078 -3.16650391 C63.68973876 -3.19525431 64.62117674 -3.22400472 65.58084011 -3.25362635 C149.57424067 -5.77440529 149.57424067 -5.77440529 179.16421509 20.85961914 C183.92847805 25.40179041 188.27245311 30.23710855 192.50830078 35.27099609 C193.19491539 36.08177864 193.88153 36.89256119 194.58895111 37.7279129 C201.32682255 45.78691791 207.59649707 54.13849924 213.12011719 63.07983398 C213.51119596 63.69984598 213.90227474 64.31985798 214.30520439 64.95865822 C216.77822714 69.17634662 217.25623669 72.36528918 216.88330078 77.20849609 C220.18330078 77.20849609 223.48330078 77.20849609 226.88330078 77.20849609 C227.21330078 75.88849609 227.54330078 74.56849609 227.88330078 73.20849609 C230.39716599 71.95156349 232.15496155 72.06107395 234.96875 72.03149414 C236.56213699 72.01224129 236.56213699 72.01224129 238.18771362 71.99259949 C239.34280426 71.98521255 240.4978949 71.97782562 241.68798828 71.97021484 C243.47222702 71.95810722 243.47222702 71.95810722 245.29251099 71.945755 C247.81950416 71.93189768 250.34651619 71.92118294 252.87353516 71.91333008 C256.70789182 71.89622102 260.54136293 71.85236059 264.37548828 71.80810547 C266.83381529 71.79796946 269.29214962 71.78945621 271.75048828 71.78271484 C272.88533661 71.76520676 274.02018494 71.74769867 275.18942261 71.72966003 C286.59376491 71.7601636 296.32232174 74.51843916 304.88330078 82.20849609 C305.49947266 82.73314453 306.11564453 83.25779297 306.75048828 83.79833984 C314.10387695 90.50475655 318.44533883 99.92935368 319.13777637 109.8569603 C319.13982924 111.16661884 319.14188211 112.47627739 319.14399719 113.82562256 C319.14782274 114.56044271 319.15164829 115.29526286 319.15558976 116.05235028 C319.16585112 118.49737678 319.16194088 120.94216543 319.15795898 123.38720703 C319.16230905 125.14689856 319.16749318 126.90658819 319.17344666 128.66627502 C319.18681066 133.4324603 319.18741862 138.19856615 319.18488336 142.9647665 C319.1838127 146.94385199 319.18869903 150.92292147 319.19348878 154.90200353 C319.20457321 164.28429062 319.2050262 173.66653766 319.19897461 183.04882812 C319.19292364 192.73457386 319.20527671 202.42017474 319.22654468 212.10589576 C319.24413498 220.42194793 319.25016644 228.73795388 319.24690694 237.05402398 C319.24509111 242.02112029 319.24776074 246.98811307 319.26162148 251.95519257 C319.27415475 256.62066142 319.27229867 261.28590315 319.25921059 265.95136833 C319.25683606 267.66587588 319.25961065 269.38039921 319.26783371 271.09488869 C319.27822848 273.42996092 319.27026025 275.76426052 319.25752258 278.0993042 C319.2577742 280.06152987 319.2577742 280.06152987 319.25803089 282.06339645 C318.88330078 285.20849609 318.88330078 285.20849609 317.48491192 287.15282059 C315.88330078 288.20849609 315.88330078 288.20849609 313.88330078 288.20849609 C313.88330078 299.75849609 313.88330078 311.30849609 313.88330078 323.20849609 C315.20330078 323.53849609 316.52330078 323.86849609 317.88330078 324.20849609 C319.87764238 328.1971793 319.06815114 333.26083691 319.07080078 337.64599609 C319.08304687 338.70882813 319.09529297 339.77166016 319.10791016 340.86669922 C319.10984375 341.88570313 319.11177734 342.90470703 319.11376953 343.95458984 C319.11787842 344.88972412 319.1219873 345.8248584 319.1262207 346.78833008 C318.88330078 349.20849609 318.88330078 349.20849609 316.88330078 352.20849609 C315.89330078 352.20849609 314.90330078 352.20849609 313.88330078 352.20849609 C313.88330078 355.50849609 313.88330078 358.80849609 313.88330078 362.20849609 C315.20330078 362.86849609 316.52330078 363.52849609 317.88330078 364.20849609 C318.88330078 365.20849609 318.88330078 365.20849609 318.99682617 367.52514648 C318.99158936 368.52537842 318.98635254 369.52561035 318.98095703 370.55615234 C318.97773438 371.63574219 318.97451172 372.71533203 318.97119141 373.82763672 C318.9628125 374.96394531 318.95443359 376.10025391 318.94580078 377.27099609 C318.94128906 378.41117187 318.93677734 379.55134766 318.93212891 380.72607422 C318.92029826 383.55359961 318.90381488 386.38102249 318.88330078 389.20849609 C319.74608643 389.19802246 320.60887207 389.18754883 321.49780273 389.17675781 C324.70140599 389.14265626 327.90491668 389.11758753 331.10864258 389.09863281 C332.49474126 389.08858039 333.88081877 389.0749364 335.2668457 389.05761719 C337.25999829 389.03333658 339.25330611 389.02307578 341.24658203 389.01318359 C342.44581299 389.00270996 343.64504395 388.99223633 344.88061523 388.98144531 C347.88330078 389.20849609 347.88330078 389.20849609 350.88330078 391.20849609 C351.27098083 393.05885315 351.27098083 393.05885315 351.28735352 395.33178711 C351.30003769 396.18349991 351.31272186 397.03521271 351.32579041 397.91273499 C351.32138695 399.29857033 351.32138695 399.29857033 351.31689453 400.71240234 C351.32213638 401.66485336 351.32737823 402.61730438 351.33277893 403.59861755 C351.3392135 405.62034124 351.33784368 407.64210229 351.3293457 409.66381836 C351.32090047 412.73474532 351.34947146 415.80377184 351.38134766 418.87451172 C351.38296153 420.84130804 351.38237858 422.80810762 351.37939453 424.77490234 C351.39062851 425.68462296 351.40186249 426.59434357 351.41343689 427.53163147 C351.3317484 435.14041256 349.47564916 441.21732489 344.44580078 447.02099609 C343.60017578 447.74287109 342.75455078 448.46474609 341.88330078 449.20849609 C341.07892578 449.93037109 340.27455078 450.65224609 339.44580078 451.39599609 C334.23510091 455.08161308 329.05136577 455.50052585 322.82998943 455.465765 C321.63334594 455.47102411 321.63334594 455.47102411 320.41252783 455.47638947 C317.73472187 455.48570611 315.05713326 455.48077946 312.37931824 455.47592163 C310.44189616 455.47965775 308.5044756 455.48425912 306.56705743 455.48965228 C301.23923211 455.50190233 295.9114695 455.50161945 290.5836333 455.49926353 C284.8391268 455.49885587 279.09464054 455.5098896 273.35014343 455.51937866 C262.09426063 455.53600046 250.83839876 455.54148874 239.58250471 455.54260342 C230.43464704 455.5435533 221.28679629 455.5476606 212.13894081 455.55400467 C190.43117734 455.56875304 168.72341981 455.58105406 147.01565075 455.58000755 C145.97431886 455.57996082 145.97431886 455.57996082 144.91194996 455.57991314 C141.39334842 455.57974692 137.87474688 455.57954884 134.35614534 455.57934372 C133.65733852 455.57930383 132.95853169 455.57926394 132.2385489 455.57922284 C130.82539124 455.57914197 129.41223358 455.57905837 127.99907593 455.57897206 C106.0121342 455.57774652 84.02525416 455.59276025 62.03833008 455.62011719 C37.33606757 455.65083999 12.63384713 455.66802423 -12.06843585 455.66619074 C-25.14779791 455.66552631 -38.2270904 455.6710421 -51.30643654 455.69254684 C-62.44167788 455.71073761 -73.57681813 455.71512323 -84.71206788 455.701528 C-90.394168 455.69498786 -96.07607404 455.69491904 -101.75815582 455.7122345 C-106.96004528 455.72792371 -112.16158608 455.72514391 -117.36346682 455.70766623 C-119.24499793 455.70458721 -121.1265548 455.70826258 -123.00805555 455.71938638 C-142.78584536 455.82856944 -142.78584536 455.82856944 -150.92919922 448.77099609 C-151.65107422 447.92537109 -152.37294922 447.07974609 -153.11669922 446.20849609 C-153.83857422 445.40412109 -154.56044922 444.59974609 -155.30419922 443.77099609 C-159.45977451 437.89587241 -159.42430455 431.99525857 -159.41748047 425.06787109 C-159.42176559 424.10447815 -159.42605072 423.14108521 -159.4304657 422.14849854 C-159.43618916 420.12130518 -159.43672395 418.0940913 -159.43237305 416.06689453 C-159.42919554 412.9548904 -159.45275736 409.84382154 -159.47802734 406.73193359 C-159.48029867 404.76058063 -159.48100461 402.7892251 -159.47998047 400.81787109 C-159.48919022 399.8845697 -159.49839996 398.95126831 -159.50788879 397.98968506 C-159.50166 397.12828918 -159.49543121 396.26689331 -159.48901367 395.37939453 C-159.4896431 394.62027771 -159.49027252 393.86116089 -159.49092102 393.07904053 C-159.11669922 391.20849609 -159.11669922 391.20849609 -156.11669922 389.20849609 C-153.11401367 388.98144531 -153.11401367 388.98144531 -149.47998047 389.01318359 C-148.18125 389.01962891 -146.88251953 389.02607422 -145.54443359 389.03271484 C-144.17268615 389.04942549 -142.80094136 389.06635538 -141.42919922 389.08349609 C-140.04574203 389.09352935 -138.66227795 389.1026546 -137.27880859 389.11083984 C-133.8912647 389.13444642 -130.5040685 389.16737573 -127.11669922 389.20849609 C-127.1182181 388.61423332 -127.11973698 388.01997056 -127.12130189 387.40769982 C-127.21088168 352.15972259 -127.27947951 316.911765 -127.32096054 281.66369756 C-127.32596316 277.42814193 -127.33114046 273.19258653 -127.33642578 268.95703125 C-127.33747502 268.11383499 -127.33852426 267.27063874 -127.3396053 266.40189108 C-127.35699408 252.76235786 -127.38852332 239.12289231 -127.4253104 225.48339918 C-127.46276238 211.48023179 -127.48494406 197.47709976 -127.4930532 183.47388434 C-127.49853216 174.83833413 -127.51581518 166.20297523 -127.54836509 157.56748393 C-127.56956558 151.63978876 -127.57588679 145.712192 -127.57070473 139.78446171 C-127.56815151 136.36824449 -127.57196893 132.95236077 -127.59352112 129.53620338 C-127.61351204 125.82231408 -127.60860419 122.10923393 -127.59771729 118.39532471 C-127.60936865 117.32914044 -127.62102002 116.26295617 -127.63302445 115.16446328 C-127.54566716 104.08938142 -124.56365612 94.49884329 -117.11669922 86.20849609 C-116.59205078 85.59232422 -116.06740234 84.97615234 -115.52685547 84.34130859 C-109.1630428 77.36357518 -100.01698471 72.73192288 -90.54211426 72.01319885 C-87.48726165 71.92825655 -84.43836446 71.90511182 -81.38232422 71.90771484 C-80.26734558 71.90342972 -79.15236694 71.89914459 -78.00360107 71.89472961 C-75.65703001 71.88900612 -73.3104412 71.88847139 -70.96386719 71.89282227 C-67.36476803 71.8959978 -63.76647907 71.8724439 -60.16748047 71.84716797 C-57.88492942 71.84489643 -55.60237617 71.8441908 -53.31982422 71.84521484 C-51.70264496 71.83140022 -51.70264496 71.83140022 -50.05279541 71.81730652 C-49.0545575 71.82353531 -48.05631958 71.8297641 -47.02783203 71.83618164 C-45.71048065 71.8352375 -45.71048065 71.8352375 -44.36651611 71.83427429 C-41.65199067 72.28579308 -40.74410641 73.0236268 -39.11669922 75.20849609 C-39.11669922 75.86849609 -39.11669922 76.52849609 -39.11669922 77.20849609 C-35.81669922 77.20849609 -32.51669922 77.20849609 -29.11669922 77.20849609 C-29.12780228 76.47901764 -29.13890533 75.74953918 -29.15034485 74.99795532 C-29.25100808 68.08462621 -29.32689661 61.17140826 -29.37576008 54.25753212 C-29.40172743 50.70391915 -29.43688405 47.15091749 -29.49389648 43.59765625 C-29.55919605 39.50173462 -29.58298551 35.40644348 -29.60498047 31.31005859 C-29.6307869 30.04924469 -29.65659332 28.78843079 -29.68318176 27.4894104 C-29.68562726 19.71567481 -28.73169561 13.63075175 -24.11669922 7.20849609 C-17.07583486 0.52773836 -9.1680009 0.6815274 0 0 Z " fill="#F3F3F3" transform="translate(160.11669921875,27.79150390625)"/>
<path d="M0 0 C1.08772013 -0.08259315 1.08772013 -0.08259315 2.1974144 -0.16685486 C16.75810727 -1.26043136 31.32973906 -1.92755475 45.92118645 -2.44867516 C55.1809222 -2.7882427 64.39661717 -3.25171572 73.62890625 -4.05175781 C113.0123161 -7.38579093 146.76794847 -5.5176706 178.17759705 20.90104675 C204.55202879 44.03774926 220.49724938 68.88164261 223.12122059 104.27166438 C224.2838278 124.28044039 223.23910065 144.2869161 221.85321808 164.25476003 C221.06346304 175.83918646 220.69823244 187.42747394 220.35562956 199.03234923 C219.6454375 222.78754175 218.4428154 246.49489347 216.88330078 270.20849609 C217.90166016 270.18754883 218.92001953 270.16660156 219.96923828 270.14501953 C223.77850055 270.07214926 227.58770228 270.0265273 231.39746094 269.98876953 C233.04047028 269.96876038 234.68340937 269.94154396 236.32617188 269.90673828 C238.69955867 269.85774305 241.07199727 269.83542105 243.44580078 269.81787109 C244.53223877 269.78690338 244.53223877 269.78690338 245.640625 269.75531006 C252.01831651 269.75255789 257.36263138 271.71652501 261.94189453 276.24365234 C262.39693359 276.91267578 262.85197266 277.58169922 263.32080078 278.27099609 C263.79388672 278.94259766 264.26697266 279.61419922 264.75439453 280.30615234 C269.36530055 288.0760874 267.95008094 301.54432274 266.01220703 310.01708984 C262.58698768 318.83281835 257.29712051 324.4912282 248.77783203 328.48193359 C245.327867 329.80501297 242.22185986 330.33403071 238.53031731 330.34551048 C237.22657325 330.3531223 237.22657325 330.3531223 235.89649093 330.36088789 C234.47093059 330.36163452 234.47093059 330.36163452 233.01657104 330.36239624 C232.00340447 330.36677849 230.99023789 330.37116075 229.94636929 330.3756758 C226.54106724 330.38906276 223.13579106 330.39524246 219.73046875 330.40136719 C217.29293196 330.40926823 214.85539633 330.41753718 212.41786194 330.42614746 C205.09573132 330.45010325 197.77359897 330.46529506 190.4514429 330.47820753 C188.3824048 330.48192118 186.31336736 330.48589427 184.24432993 330.48996019 C171.38829053 330.51519831 158.53225003 330.53724538 145.67619133 330.54968834 C142.69965486 330.5526179 139.72311842 330.55557958 136.74658203 330.55859375 C136.00680406 330.5593398 135.2670261 330.56008585 134.50483061 330.56085451 C122.5260611 330.57350293 110.54744019 330.60672053 98.56874011 330.64839558 C86.26272917 330.69085745 73.95679422 330.71438826 61.65071023 330.7196089 C54.74441368 330.72301819 47.83834938 330.73471616 40.93212509 330.76771164 C34.43306208 330.79871151 27.9342926 330.80410513 21.4351635 330.79232788 C19.05276036 330.79210712 16.67033848 330.80041444 14.28800011 330.81798172 C11.02882598 330.84070221 7.77111506 330.8323636 4.51193237 330.8164978 C3.57494314 330.83037989 2.63795391 330.84426198 1.67257106 330.85856473 C-6.83844101 330.75687284 -13.59442944 327.6771345 -19.92919922 322.02099609 C-26.15199434 315.29802359 -29.2291225 307.24428761 -29.25371361 298.15462208 C-29.25878815 297.15458269 -29.26386269 296.1545433 -29.26909101 295.12419969 C-29.26958877 294.03277388 -29.27008652 292.94134807 -29.27059937 291.81684875 C-29.27498162 290.65173631 -29.27936387 289.48662387 -29.28387892 288.28620499 C-29.29492314 285.05595354 -29.30148497 281.82572937 -29.30606008 278.5954634 C-29.31202887 275.10997331 -29.32363534 271.62450093 -29.33435059 268.13902283 C-29.35884288 259.72423506 -29.37349579 251.30944145 -29.38641065 242.89462903 C-29.39012449 240.51710625 -29.39409755 238.13958404 -29.39816332 235.76206183 C-29.42339852 220.99026461 -29.44544622 206.21846642 -29.45789146 191.44665241 C-29.46082103 188.02717905 -29.46378272 184.60770571 -29.46679688 181.18823242 C-29.46754293 180.33836721 -29.46828898 179.488502 -29.46905763 178.61288329 C-29.48171081 164.84619229 -29.51493564 151.07963045 -29.55659871 137.31299982 C-29.59904383 123.17181721 -29.62258934 109.03070069 -29.62781203 94.88945454 C-29.63122289 86.95254953 -29.64293997 79.01584651 -29.67591476 71.07900429 C-29.70395172 64.31973412 -29.71489862 57.56070739 -29.7037193 50.80138359 C-29.69854216 47.35493689 -29.70135676 43.90899968 -29.72618484 40.46262741 C-29.74886273 36.7196817 -29.74058554 32.97801416 -29.72470093 29.23506165 C-29.73858302 28.15478945 -29.7524651 27.07451725 -29.76676786 25.96150953 C-29.69175792 18.77352682 -28.24431863 13.18056275 -24.11669922 7.20849609 C-17.09745052 0.51433742 -9.15345863 0.68312854 0 0 Z " fill="#FED664" transform="translate(160.11669921875,27.79150390625)"/>
<path d="M0 0 C1.11497864 -0.00428513 2.22995728 -0.00857025 3.37872314 -0.01298523 C5.72529421 -0.01870872 8.07188302 -0.01924346 10.41845703 -0.01489258 C14.01755619 -0.01171705 17.61584515 -0.03527094 21.21484375 -0.06054688 C23.4973948 -0.06281842 25.77994805 -0.06352404 28.0625 -0.0625 C29.67967926 -0.07631462 29.67967926 -0.07631462 31.32952881 -0.09040833 C32.32776672 -0.08417953 33.32600464 -0.07795074 34.35449219 -0.0715332 C35.67184357 -0.07247734 35.67184357 -0.07247734 37.01580811 -0.07344055 C39.265625 0.30078125 39.265625 0.30078125 41.0803833 1.63264465 C42.265625 3.30078125 42.265625 3.30078125 42.140625 6.36328125 C41.265625 9.30078125 41.265625 9.30078125 38.265625 11.30078125 C36.10519409 11.55233765 36.10519409 11.55233765 33.56982422 11.55615234 C32.61808319 11.56311127 31.66634216 11.57007019 30.6857605 11.57723999 C29.65766266 11.57624298 28.62956482 11.57524597 27.5703125 11.57421875 C25.38801582 11.59451967 23.20572419 11.61537066 21.0234375 11.63671875 C17.58719626 11.65925469 14.15115531 11.67576324 10.71484375 11.68164062 C7.39546534 11.69121207 4.07698737 11.72505991 0.7578125 11.76171875 C-0.25813995 11.75667328 -1.27409241 11.75162781 -2.3208313 11.74642944 C-8.99231294 11.83759014 -13.8794513 13.11478003 -19.734375 16.30078125 C-20.78625 16.85765625 -21.838125 17.41453125 -22.921875 17.98828125 C-28.42603515 22.51392404 -31.93167826 28.43595394 -33.734375 35.30078125 C-34.03329868 39.12226857 -34.01969343 42.93442398 -34.0128479 46.76608276 C-34.01863358 47.92405869 -34.02441925 49.08203461 -34.03038025 50.27510071 C-34.04443151 53.48689 -34.04958618 56.6985524 -34.05101922 59.91036758 C-34.05479995 63.42796689 -34.07012978 66.94551948 -34.0839901 70.4630909 C-34.1091629 77.28941439 -34.1241525 84.11572232 -34.13557401 90.94208116 C-34.14922694 98.83910795 -34.17556287 106.73605899 -34.2019043 114.63305664 C-34.26518272 135.48060156 -34.31122288 156.32819591 -34.359375 177.17578125 C-34.483125 223.74703125 -34.606875 270.31828125 -34.734375 318.30078125 C105.185625 318.30078125 245.105625 318.30078125 389.265625 318.30078125 C389.265625 310.05078125 389.265625 301.80078125 389.265625 293.30078125 C391.88189665 290.6845096 393.61827521 290.52408838 397.265625 290.30078125 C398.9387207 291.44262695 398.9387207 291.44262695 400.265625 293.30078125 C400.60620117 295.84448242 400.60620117 295.84448242 400.55859375 298.84375 C400.54892578 299.91689453 400.53925781 300.99003906 400.52929688 302.09570312 C400.4915918 303.7750293 400.4915918 303.7750293 400.453125 305.48828125 C400.43958984 306.61943359 400.42605469 307.75058594 400.41210938 308.91601562 C400.37672458 311.71141442 400.32735448 314.50586017 400.265625 317.30078125 C401.12841064 317.29030762 401.99119629 317.27983398 402.88012695 317.26904297 C406.08373021 317.23494142 409.2872409 317.20987268 412.4909668 317.19091797 C413.87706548 317.18086555 415.26314299 317.16722155 416.64916992 317.14990234 C418.6423225 317.12562173 420.63563033 317.11536094 422.62890625 317.10546875 C423.82813721 317.09499512 425.02736816 317.08452148 426.26293945 317.07373047 C429.265625 317.30078125 429.265625 317.30078125 432.265625 319.30078125 C432.65330505 321.15113831 432.65330505 321.15113831 432.66967773 323.42407227 C432.68236191 324.27578506 432.69504608 325.12749786 432.70811462 326.00502014 C432.70371117 327.39085548 432.70371117 327.39085548 432.69921875 328.8046875 C432.7044606 329.75713852 432.70970245 330.70958954 432.71510315 331.69090271 C432.72153771 333.7126264 432.7201679 335.73438745 432.71166992 337.75610352 C432.70322469 340.82703048 432.73179568 343.896057 432.76367188 346.96679688 C432.76528575 348.9335932 432.76470279 350.90039278 432.76171875 352.8671875 C432.77295273 353.77690811 432.78418671 354.68662872 432.79576111 355.62391663 C432.71407262 363.23269772 430.85797337 369.30961005 425.828125 375.11328125 C424.9825 375.83515625 424.136875 376.55703125 423.265625 377.30078125 C422.46125 378.02265625 421.656875 378.74453125 420.828125 379.48828125 C415.61742513 383.17389823 410.43368999 383.592811 404.21231365 383.55805016 C403.01567016 383.56330927 403.01567016 383.56330927 401.79485205 383.56867462 C399.11704609 383.57799127 396.43945748 383.57306462 393.76164246 383.56820679 C391.82422038 383.57194291 389.88679982 383.57654428 387.94938165 383.58193743 C382.62155633 383.59418748 377.29379371 383.5939046 371.96595752 383.59154868 C366.22145102 383.59114102 360.47696476 383.60217476 354.73246765 383.61166382 C343.47658484 383.62828561 332.22072298 383.63377389 320.96482893 383.63488857 C311.81697126 383.63583846 302.66912051 383.63994575 293.52126503 383.64628983 C271.81350156 383.66103819 250.10574403 383.67333922 228.39797497 383.67229271 C227.35664308 383.67224597 227.35664308 383.67224597 226.29427418 383.67219829 C222.77567264 383.67203208 219.2570711 383.671834 215.73846956 383.67162888 C215.03966274 383.67158899 214.34085591 383.6715491 213.62087312 383.671508 C212.20771546 383.67142712 210.7945578 383.67134353 209.38140015 383.67125721 C187.39445842 383.67003168 165.40757837 383.6850454 143.4206543 383.71240234 C118.71839179 383.74312514 94.01617135 383.76030939 69.31388837 383.7584759 C56.23452631 383.75781146 43.15523382 383.76332726 30.07588768 383.784832 C18.94064633 383.80302276 7.80550609 383.80740839 -3.32974366 383.79381315 C-9.01184378 383.78727302 -14.69374982 383.78720419 -20.3758316 383.80451965 C-25.57772106 383.82020887 -30.77926187 383.81742907 -35.9811426 383.79995139 C-37.86267371 383.79687236 -39.74423058 383.80054774 -41.62573133 383.81167154 C-61.40352114 383.92085459 -61.40352114 383.92085459 -69.546875 376.86328125 C-70.26875 376.01765625 -70.990625 375.17203125 -71.734375 374.30078125 C-72.45625 373.49640625 -73.178125 372.69203125 -73.921875 371.86328125 C-78.07745029 365.98815757 -78.04198033 360.08754373 -78.03515625 353.16015625 C-78.03944138 352.19676331 -78.0437265 351.23337036 -78.04814148 350.24078369 C-78.05386494 348.21359034 -78.05439973 346.18637645 -78.05004883 344.15917969 C-78.04687132 341.04717556 -78.07043314 337.93610669 -78.09570312 334.82421875 C-78.09797445 332.85286578 -78.09868039 330.88151026 -78.09765625 328.91015625 C-78.106866 327.97685486 -78.11607574 327.04355347 -78.12556458 326.08197021 C-78.11933578 325.22057434 -78.11310699 324.35917847 -78.10668945 323.47167969 C-78.10731888 322.71256287 -78.1079483 321.95344604 -78.1085968 321.17132568 C-77.734375 319.30078125 -77.734375 319.30078125 -74.734375 317.30078125 C-71.73168945 317.07373047 -71.73168945 317.07373047 -68.09765625 317.10546875 C-66.79892578 317.11191406 -65.50019531 317.11835938 -64.16210938 317.125 C-62.79036193 317.14171065 -61.41861714 317.15864054 -60.046875 317.17578125 C-58.66341782 317.18581451 -57.27995373 317.19493976 -55.89648438 317.203125 C-52.50894048 317.22673158 -49.12174428 317.25966088 -45.734375 317.30078125 C-45.73589388 316.70651848 -45.73741276 316.11225571 -45.73897767 315.49998498 C-45.82855746 280.25200775 -45.8971553 245.00405016 -45.93863632 209.75598271 C-45.94363894 205.52042709 -45.94881625 201.28487169 -45.95410156 197.04931641 C-45.9551508 196.20612015 -45.95620005 195.3629239 -45.95728108 194.49417624 C-45.97466986 180.85464301 -46.0061991 167.21517746 -46.04298618 153.57568434 C-46.08043817 139.57251695 -46.10261984 125.56938492 -46.11072898 111.5661695 C-46.11620794 102.93061929 -46.13349097 94.29526039 -46.16604087 85.65976909 C-46.18724136 79.73207392 -46.19356257 73.80447716 -46.18838051 67.87674686 C-46.18582729 64.46052965 -46.18964471 61.04464593 -46.2111969 57.62848854 C-46.23118782 53.91459924 -46.22627997 50.20151909 -46.21539307 46.48760986 C-46.22704443 45.42142559 -46.2386958 44.35524132 -46.25070024 43.25674844 C-46.16334294 32.18166658 -43.1813319 22.59112845 -35.734375 14.30078125 C-35.20972656 13.68460938 -34.68507812 13.0684375 -34.14453125 12.43359375 C-24.91647946 2.31530637 -13.10029481 -0.01115837 0 0 Z " fill="#FE6660" transform="translate(78.734375,99.69921875)"/>
<path d="M0 0 C1.08772013 -0.08259315 1.08772013 -0.08259315 2.1974144 -0.16685486 C16.75810727 -1.26043136 31.32973906 -1.92755475 45.92118645 -2.44867516 C55.1809222 -2.7882427 64.39661717 -3.25171572 73.62890625 -4.05175781 C113.0123161 -7.38579093 146.76794847 -5.5176706 178.17759705 20.90104675 C204.55202879 44.03774926 220.49724938 68.88164261 223.12122059 104.27166438 C224.2838278 124.28044039 223.23910065 144.2869161 221.85321808 164.25476003 C221.06346304 175.83918646 220.69823244 187.42747394 220.35562956 199.03234923 C219.6454375 222.78754175 218.4428154 246.49489347 216.88330078 270.20849609 C217.90166016 270.18754883 218.92001953 270.16660156 219.96923828 270.14501953 C223.77850055 270.07214926 227.58770228 270.0265273 231.39746094 269.98876953 C233.04047028 269.96876038 234.68340937 269.94154396 236.32617188 269.90673828 C238.69955867 269.85774305 241.07199727 269.83542105 243.44580078 269.81787109 C244.53223877 269.78690338 244.53223877 269.78690338 245.640625 269.75531006 C252.01831651 269.75255789 257.36263138 271.71652501 261.94189453 276.24365234 C262.39693359 276.91267578 262.85197266 277.58169922 263.32080078 278.27099609 C263.79388672 278.94259766 264.26697266 279.61419922 264.75439453 280.30615234 C269.36530055 288.0760874 267.95008094 301.54432274 266.01220703 310.01708984 C262.58698768 318.83281835 257.29712051 324.4912282 248.77783203 328.48193359 C245.327867 329.80501297 242.22185986 330.33403071 238.53031731 330.34551048 C237.22657325 330.3531223 237.22657325 330.3531223 235.89649093 330.36088789 C234.47093059 330.36163452 234.47093059 330.36163452 233.01657104 330.36239624 C232.00340447 330.36677849 230.99023789 330.37116075 229.94636929 330.3756758 C226.54106724 330.38906276 223.13579106 330.39524246 219.73046875 330.40136719 C217.29293196 330.40926823 214.85539633 330.41753718 212.41786194 330.42614746 C205.09573132 330.45010325 197.77359897 330.46529506 190.4514429 330.47820753 C188.3824048 330.48192118 186.31336736 330.48589427 184.24432993 330.48996019 C171.38829053 330.51519831 158.53225003 330.53724538 145.67619133 330.54968834 C142.69965486 330.5526179 139.72311842 330.55557958 136.74658203 330.55859375 C136.00680406 330.5593398 135.2670261 330.56008585 134.50483061 330.56085451 C122.5260611 330.57350293 110.54744019 330.60672053 98.56874011 330.64839558 C86.26272917 330.69085745 73.95679422 330.71438826 61.65071023 330.7196089 C54.74441368 330.72301819 47.83834938 330.73471616 40.93212509 330.76771164 C34.43306208 330.79871151 27.9342926 330.80410513 21.4351635 330.79232788 C19.05276036 330.79210712 16.67033848 330.80041444 14.28800011 330.81798172 C11.02882598 330.84070221 7.77111506 330.8323636 4.51193237 330.8164978 C3.57494314 330.83037989 2.63795391 330.84426198 1.67257106 330.85856473 C-6.83844101 330.75687284 -13.59442944 327.6771345 -19.92919922 322.02099609 C-26.15199434 315.29802359 -29.2291225 307.24428761 -29.25371361 298.15462208 C-29.25878815 297.15458269 -29.26386269 296.1545433 -29.26909101 295.12419969 C-29.26958877 294.03277388 -29.27008652 292.94134807 -29.27059937 291.81684875 C-29.27498162 290.65173631 -29.27936387 289.48662387 -29.28387892 288.28620499 C-29.29492314 285.05595354 -29.30148497 281.82572937 -29.30606008 278.5954634 C-29.31202887 275.10997331 -29.32363534 271.62450093 -29.33435059 268.13902283 C-29.35884288 259.72423506 -29.37349579 251.30944145 -29.38641065 242.89462903 C-29.39012449 240.51710625 -29.39409755 238.13958404 -29.39816332 235.76206183 C-29.42339852 220.99026461 -29.44544622 206.21846642 -29.45789146 191.44665241 C-29.46082103 188.02717905 -29.46378272 184.60770571 -29.46679688 181.18823242 C-29.46754293 180.33836721 -29.46828898 179.488502 -29.46905763 178.61288329 C-29.48171081 164.84619229 -29.51493564 151.07963045 -29.55659871 137.31299982 C-29.59904383 123.17181721 -29.62258934 109.03070069 -29.62781203 94.88945454 C-29.63122289 86.95254953 -29.64293997 79.01584651 -29.67591476 71.07900429 C-29.70395172 64.31973412 -29.71489862 57.56070739 -29.7037193 50.80138359 C-29.69854216 47.35493689 -29.70135676 43.90899968 -29.72618484 40.46262741 C-29.74886273 36.7196817 -29.74058554 32.97801416 -29.72470093 29.23506165 C-29.73858302 28.15478945 -29.7524651 27.07451725 -29.76676786 25.96150953 C-29.69175792 18.77352682 -28.24431863 13.18056275 -24.11669922 7.20849609 C-17.09745052 0.51433742 -9.15345863 0.68312854 0 0 Z M-17.11669922 17.20849609 C-18.32738628 19.62987022 -18.24527323 21.15869862 -18.2509203 23.86478519 C-18.25537814 24.85250135 -18.25983598 25.8402175 -18.26442891 26.85786444 C-18.26424455 27.950929 -18.26406019 29.04399355 -18.26387024 30.17018127 C-18.26754693 31.3252689 -18.27122362 32.48035653 -18.27501172 33.67044681 C-18.28415001 36.88660595 -18.28875078 40.10273509 -18.29140103 43.318905 C-18.29530007 46.78397678 -18.30487886 50.24903373 -18.31361389 53.71409607 C-18.33339238 62.08860747 -18.34344747 70.4631201 -18.35234168 78.83764902 C-18.35672339 82.78093142 -18.36209061 86.72421248 -18.36733055 90.66749382 C-18.38434624 103.77614469 -18.39883954 116.88479471 -18.40607929 129.99345493 C-18.40798921 133.39659692 -18.40990954 136.7997389 -18.41186523 140.20288086 C-18.41234897 141.04872366 -18.41283271 141.89456646 -18.41333111 142.76604085 C-18.42162806 156.46244504 -18.44695777 170.1587618 -18.47944591 183.85512782 C-18.51252665 197.91598066 -18.53052908 211.97678909 -18.53372353 226.03768104 C-18.53588798 233.93264714 -18.54462673 241.82748585 -18.57018471 249.72241402 C-18.59190581 256.44772869 -18.59993534 263.17288503 -18.59021793 269.8982308 C-18.58567688 273.32825979 -18.58754735 276.75796223 -18.60697937 280.18794632 C-18.62465123 283.91154822 -18.61761391 287.63432313 -18.60444641 291.35792542 C-18.61541566 292.43537492 -18.6263849 293.51282442 -18.63768655 294.62292391 C-18.57514782 301.9545753 -17.51842585 308.53561481 -12.37641698 314.08749777 C-8.21810992 317.90593211 -4.52286603 319.93086146 1.13330078 320.58349609 C7.67961198 319.92886497 12.89028818 317.72020286 17.32080078 312.77099609 C22.56863645 306.32707252 22.21562408 299.71260478 22.18603516 291.77685547 C22.33549142 285.38880528 23.75352525 281.14163676 27.88330078 276.20849609 C30.01611328 274.36865234 30.01611328 274.36865234 32.00830078 273.27099609 C32.67087891 272.89072266 33.33345703 272.51044922 34.01611328 272.11865234 C37.56881836 270.38689443 40.39468645 270.07599873 44.29325867 270.05027771 C45.41646515 270.04048889 46.53967163 270.03070007 47.69691467 270.02061462 C48.92977707 270.01485916 50.16263947 270.0091037 51.43286133 270.00317383 C52.73052429 269.99327423 54.02818726 269.98337463 55.36517334 269.97317505 C58.9247798 269.94613033 62.48439952 269.92511843 66.04405189 269.90517306 C69.76367087 269.88331084 73.48324903 269.85592331 77.20283508 269.82911682 C84.24694873 269.77919313 91.29108505 269.7342531 98.33524305 269.69109446 C107.85363109 269.63248931 117.37196543 269.56620417 126.89030552 269.50034428 C141.88793443 269.39677464 156.88560937 269.30348215 171.88330078 269.20849609 C171.88330078 246.76849609 171.88330078 224.32849609 171.88330078 201.20849609 C155.80160156 201.15242188 155.80160156 201.15242188 139.39501953 201.09521484 C132.6183137 201.0649525 125.84162524 201.0339389 119.06494141 200.99951172 C108.29973903 200.94496259 97.53458493 200.89355279 86.76928711 200.86206055 C78.92994164 200.83911363 71.09072218 200.80575288 63.25147659 200.75979453 C59.09919306 200.7358175 54.94703468 200.71711818 50.79468346 200.71088219 C46.88845569 200.70485146 42.98254828 200.68492527 39.0764389 200.65422058 C37.64093306 200.6454079 36.2053854 200.64172443 34.76985359 200.64348793 C32.81342592 200.64513287 30.85701171 200.62672433 28.90068054 200.60722351 C27.80466868 200.60261455 26.70865683 200.59800558 25.57943249 200.59325695 C22.88330078 200.20849609 22.88330078 200.20849609 20.99158955 198.84763813 C19.88330078 197.20849609 19.88330078 197.20849609 20.13330078 194.58349609 C20.88330078 192.20849609 20.88330078 192.20849609 21.88330078 191.20849609 C23.81923729 191.0996215 25.75917285 191.06159776 27.69813538 191.05027771 C28.96163315 191.04048889 30.22513092 191.03070007 31.5269165 191.02061462 C32.9400631 191.01470966 34.35321009 191.00889927 35.76635742 191.00317383 C37.24432147 190.99360072 38.72228274 190.98359098 40.20024109 190.97317505 C44.22482924 190.94605838 48.2494292 190.92508556 52.27405858 190.90517306 C56.47548801 190.88335507 60.67688076 190.85594597 64.87828064 190.82911682 C72.83973675 190.77913314 80.80121316 190.73421544 88.76270908 190.69109446 C97.82425272 190.64177048 106.88575957 190.58683446 115.94726765 190.53141487 C134.59257811 190.41750773 153.23792377 190.31088688 171.88330078 190.20849609 C171.88330078 182.61849609 171.88330078 175.02849609 171.88330078 167.20849609 C170.02327927 167.20262985 168.16325775 167.19676361 166.24687195 167.1907196 C148.75022181 167.13360047 131.25369601 167.0610745 113.75717449 166.97278118 C104.76122393 166.92778216 95.76531332 166.88837706 86.76928711 166.86206055 C78.92994164 166.83911363 71.09072218 166.80575288 63.25147659 166.75979453 C59.09919306 166.7358175 54.94703468 166.71711818 50.79468346 166.71088219 C46.88845569 166.70485146 42.98254828 166.68492527 39.0764389 166.65422058 C37.64093306 166.6454079 36.2053854 166.64172443 34.76985359 166.64348793 C32.81342592 166.64513287 30.85701171 166.62672433 28.90068054 166.60722351 C27.80466868 166.60261455 26.70865683 166.59800558 25.57943249 166.59325695 C22.88330078 166.20849609 22.88330078 166.20849609 20.99158955 164.84763813 C19.88330078 163.20849609 19.88330078 163.20849609 20.13330078 160.58349609 C20.88330078 158.20849609 20.88330078 158.20849609 21.88330078 157.20849609 C23.81923729 157.0996215 25.75917285 157.06159776 27.69813538 157.05027771 C28.96163315 157.04048889 30.22513092 157.03070007 31.5269165 157.02061462 C32.9400631 157.01470966 34.35321009 157.00889927 35.76635742 157.00317383 C37.24432147 156.99360072 38.72228274 156.98359098 40.20024109 156.97317505 C44.22482924 156.94605838 48.2494292 156.92508556 52.27405858 156.90517306 C56.47548801 156.88335507 60.67688076 156.85594597 64.87828064 156.82911682 C72.83973675 156.77913314 80.80121316 156.73421544 88.76270908 156.69109446 C99.51719205 156.63255544 110.27162683 156.5662382 121.02606678 156.50034428 C137.97844568 156.39668084 154.93086569 156.30345074 171.88330078 156.20849609 C171.88330078 130.79849609 171.88330078 105.38849609 171.88330078 79.20849609 C166.60330078 78.87849609 161.32330078 78.54849609 155.88330078 78.20849609 C148.91401365 75.68117219 145.27296577 73.56895092 141.72314453 67.07568359 C140.19696817 63.68260313 139.74286296 60.95795135 139.67797852 57.27807617 C139.65803329 56.27726517 139.63808807 55.27645416 139.61753845 54.24531555 C139.59246971 52.62800789 139.59246971 52.62800789 139.56689453 50.97802734 C139.54611343 49.87246994 139.52533234 48.76691254 139.50392151 47.62785339 C139.43847746 44.09229819 139.37956475 40.55666803 139.32080078 37.02099609 C139.27761069 34.62580602 139.23399624 32.23062355 139.18994141 29.83544922 C139.0828013 23.95987767 138.98102521 18.08423138 138.88330078 12.20849609 C119.28176756 12.0917145 99.68030489 12.00353331 80.07849598 11.94943523 C70.97709845 11.92364931 61.87591703 11.88849146 52.7746582 11.83129883 C44.84234384 11.78147563 36.91018597 11.7492079 28.97771949 11.73805362 C24.77712774 11.73153296 20.57698372 11.71619998 16.37653542 11.67984581 C12.42267593 11.64590313 8.4694485 11.63543941 4.51545715 11.64295769 C3.06460828 11.64158234 1.61373824 11.63163881 0.16301537 11.61246872 C-1.81879497 11.58756572 -3.80094459 11.59655936 -5.78288269 11.60722351 C-6.89179965 11.60261455 -8.00071661 11.59800558 -9.14323711 11.59325695 C-13.07969208 12.40774898 -14.57553894 14.17381529 -17.11669922 17.20849609 Z " fill="#2E3F66" transform="translate(160.11669921875,27.79150390625)"/>
<path d="M0 0 C1.59338699 -0.01925285 1.59338699 -0.01925285 3.21896362 -0.03889465 C4.37405426 -0.04628159 5.5291449 -0.05366852 6.71923828 -0.0612793 C8.50347702 -0.07338692 8.50347702 -0.07338692 10.32376099 -0.08573914 C12.85075416 -0.09959646 15.37776619 -0.1103112 17.90478516 -0.11816406 C21.73914182 -0.13527312 25.57261293 -0.17913355 29.40673828 -0.22338867 C31.86506529 -0.23352468 34.32339962 -0.24203793 36.78173828 -0.2487793 C37.91658661 -0.26628738 39.05143494 -0.28379547 40.22067261 -0.30183411 C51.62501491 -0.27133054 61.35357174 2.48694502 69.91455078 10.17700195 C70.53072266 10.70165039 71.14689453 11.22629883 71.78173828 11.7668457 C79.13512695 18.47326241 83.47658883 27.89785954 84.16902637 37.82546616 C84.17107924 39.1351247 84.17313211 40.44478325 84.17524719 41.79412842 C84.17907274 42.52894857 84.18289829 43.26376872 84.18683976 44.02085614 C84.19710112 46.46588264 84.19319088 48.91067129 84.18920898 51.35571289 C84.19355905 53.11540442 84.19874318 54.87509405 84.20469666 56.63478088 C84.21806066 61.40096615 84.21866862 66.16707201 84.21613336 70.93327236 C84.2150627 74.91235785 84.21994903 78.89142733 84.22473878 82.87050939 C84.23582321 92.25279648 84.2362762 101.63504352 84.23022461 111.01733398 C84.22417364 120.70307972 84.23652671 130.3886806 84.25779468 140.07440162 C84.27538498 148.39045379 84.28141644 156.70645974 84.27815694 165.02252984 C84.27634111 169.98962615 84.27901074 174.95661893 84.29287148 179.92369843 C84.30540475 184.58916728 84.30354867 189.25440901 84.29046059 193.91987419 C84.28808606 195.63438174 84.29086065 197.34890507 84.29908371 199.06339455 C84.30947848 201.39846678 84.30151025 203.73276637 84.28877258 206.06781006 C84.2890242 208.03003572 84.2890242 208.03003572 84.28928089 210.03190231 C83.91455078 213.17700195 83.91455078 213.17700195 82.51616192 215.12132645 C80.91455078 216.17700195 80.91455078 216.17700195 78.91455078 216.17700195 C78.91455078 227.72700195 78.91455078 239.27700195 78.91455078 251.17700195 C80.23455078 251.50700195 81.55455078 251.83700195 82.91455078 252.17700195 C84.90889238 256.16568516 84.09940114 261.22934277 84.10205078 265.61450195 C84.11429687 266.67733398 84.12654297 267.74016602 84.13916016 268.83520508 C84.14109375 269.85420898 84.14302734 270.87321289 84.14501953 271.9230957 C84.14912842 272.85822998 84.1532373 273.79336426 84.1574707 274.75683594 C83.91455078 277.17700195 83.91455078 277.17700195 81.91455078 280.17700195 C80.92455078 280.17700195 79.93455078 280.17700195 78.91455078 280.17700195 C78.91455078 283.80700195 78.91455078 287.43700195 78.91455078 291.17700195 C77.26455078 291.83700195 75.61455078 292.49700195 73.91455078 293.17700195 C73.58455078 301.42700195 73.25455078 309.67700195 72.91455078 318.17700195 C-67.00544922 318.17700195 -206.92544922 318.17700195 -351.08544922 318.17700195 C-351.08544922 317.84700195 -351.08544922 317.51700195 -351.08544922 317.17700195 C-229.97544922 317.17700195 -108.86544922 317.17700195 15.91455078 317.17700195 C15.91455078 297.04700195 15.91455078 276.91700195 15.91455078 256.17700195 C15.25455078 255.84700195 14.59455078 255.51700195 13.91455078 255.17700195 C14.43404297 254.88567383 14.95353516 254.5943457 15.48876953 254.29418945 C20.14964847 251.55452309 23.99034968 248.81826064 26.91455078 244.17700195 C27.30771484 243.56083008 27.70087891 242.9446582 28.10595703 242.30981445 C31.18743435 236.27570207 31.33332166 230.19377906 31.41455078 223.55200195 C31.43300049 222.65731201 31.4514502 221.76262207 31.47045898 220.84082031 C31.40631218 213.97203104 30.03332024 208.3360136 25.09814453 203.3371582 C24.52193359 202.97493164 23.94572266 202.61270508 23.35205078 202.23950195 C22.77326172 201.85922852 22.19447266 201.47895508 21.59814453 201.0871582 C9.93056374 194.77962613 -4.82747375 198.55580125 -18.08544922 198.17700195 C-18.08544922 134.48700195 -18.08544922 70.79700195 -18.08544922 5.17700195 C-14.78544922 5.17700195 -11.48544922 5.17700195 -8.08544922 5.17700195 C-7.75544922 3.85700195 -7.42544922 2.53700195 -7.08544922 1.17700195 C-4.57158401 -0.07993065 -2.81378845 0.02957981 0 0 Z " fill="#C6C6C7" transform="translate(395.08544921875,99.822998046875)"/>
<path d="M0 0 C1.11497864 -0.00428513 2.22995728 -0.00857025 3.37872314 -0.01298523 C5.72529421 -0.01870872 8.07188302 -0.01924346 10.41845703 -0.01489258 C14.01755619 -0.01171705 17.61584515 -0.03527094 21.21484375 -0.06054688 C23.4973948 -0.06281842 25.77994805 -0.06352404 28.0625 -0.0625 C29.67967926 -0.07631462 29.67967926 -0.07631462 31.32952881 -0.09040833 C32.32776672 -0.08417953 33.32600464 -0.07795074 34.35449219 -0.0715332 C35.67184357 -0.07247734 35.67184357 -0.07247734 37.01580811 -0.07344055 C39.265625 0.30078125 39.265625 0.30078125 41.0803833 1.63264465 C42.265625 3.30078125 42.265625 3.30078125 42.140625 6.36328125 C41.265625 9.30078125 41.265625 9.30078125 38.265625 11.30078125 C36.10519409 11.55233765 36.10519409 11.55233765 33.56982422 11.55615234 C32.61808319 11.56311127 31.66634216 11.57007019 30.6857605 11.57723999 C29.65766266 11.57624298 28.62956482 11.57524597 27.5703125 11.57421875 C25.38801582 11.59451967 23.20572419 11.61537066 21.0234375 11.63671875 C17.58719626 11.65925469 14.15115531 11.67576324 10.71484375 11.68164062 C7.39546534 11.69121207 4.07698737 11.72505991 0.7578125 11.76171875 C-0.25813995 11.75667328 -1.27409241 11.75162781 -2.3208313 11.74642944 C-8.99231294 11.83759014 -13.8794513 13.11478003 -19.734375 16.30078125 C-20.78625 16.85765625 -21.838125 17.41453125 -22.921875 17.98828125 C-28.42603515 22.51392404 -31.93167826 28.43595394 -33.734375 35.30078125 C-34.03329868 39.12226857 -34.01969343 42.93442398 -34.0128479 46.76608276 C-34.01863358 47.92405869 -34.02441925 49.08203461 -34.03038025 50.27510071 C-34.04443151 53.48689 -34.04958618 56.6985524 -34.05101922 59.91036758 C-34.05479995 63.42796689 -34.07012978 66.94551948 -34.0839901 70.4630909 C-34.1091629 77.28941439 -34.1241525 84.11572232 -34.13557401 90.94208116 C-34.14922694 98.83910795 -34.17556287 106.73605899 -34.2019043 114.63305664 C-34.26518272 135.48060156 -34.31122288 156.32819591 -34.359375 177.17578125 C-34.483125 223.74703125 -34.606875 270.31828125 -34.734375 318.30078125 C105.185625 318.30078125 245.105625 318.30078125 389.265625 318.30078125 C389.265625 310.05078125 389.265625 301.80078125 389.265625 293.30078125 C391.88189665 290.6845096 393.61827521 290.52408838 397.265625 290.30078125 C398.9387207 291.44262695 398.9387207 291.44262695 400.265625 293.30078125 C400.60620117 295.84448242 400.60620117 295.84448242 400.55859375 298.84375 C400.54892578 299.91689453 400.53925781 300.99003906 400.52929688 302.09570312 C400.4915918 303.7750293 400.4915918 303.7750293 400.453125 305.48828125 C400.43958984 306.61943359 400.42605469 307.75058594 400.41210938 308.91601562 C400.37672458 311.71141442 400.32735448 314.50586017 400.265625 317.30078125 C401.12841064 317.29030762 401.99119629 317.27983398 402.88012695 317.26904297 C406.08373021 317.23494142 409.2872409 317.20987268 412.4909668 317.19091797 C413.87706548 317.18086555 415.26314299 317.16722155 416.64916992 317.14990234 C418.6423225 317.12562173 420.63563033 317.11536094 422.62890625 317.10546875 C423.82813721 317.09499512 425.02736816 317.08452148 426.26293945 317.07373047 C429.265625 317.30078125 429.265625 317.30078125 432.265625 319.30078125 C432.65330505 321.15113831 432.65330505 321.15113831 432.66967773 323.42407227 C432.68236191 324.27578506 432.69504608 325.12749786 432.70811462 326.00502014 C432.70371117 327.39085548 432.70371117 327.39085548 432.69921875 328.8046875 C432.7044606 329.75713852 432.70970245 330.70958954 432.71510315 331.69090271 C432.72153771 333.7126264 432.7201679 335.73438745 432.71166992 337.75610352 C432.70322469 340.82703048 432.73179568 343.896057 432.76367188 346.96679688 C432.76528575 348.9335932 432.76470279 350.90039278 432.76171875 352.8671875 C432.77295273 353.77690811 432.78418671 354.68662872 432.79576111 355.62391663 C432.71407262 363.23269772 430.85797337 369.30961005 425.828125 375.11328125 C424.9825 375.83515625 424.136875 376.55703125 423.265625 377.30078125 C422.46125 378.02265625 421.656875 378.74453125 420.828125 379.48828125 C415.61742513 383.17389823 410.43368999 383.592811 404.21231365 383.55805016 C403.01567016 383.56330927 403.01567016 383.56330927 401.79485205 383.56867462 C399.11704609 383.57799127 396.43945748 383.57306462 393.76164246 383.56820679 C391.82422038 383.57194291 389.88679982 383.57654428 387.94938165 383.58193743 C382.62155633 383.59418748 377.29379371 383.5939046 371.96595752 383.59154868 C366.22145102 383.59114102 360.47696476 383.60217476 354.73246765 383.61166382 C343.47658484 383.62828561 332.22072298 383.63377389 320.96482893 383.63488857 C311.81697126 383.63583846 302.66912051 383.63994575 293.52126503 383.64628983 C271.81350156 383.66103819 250.10574403 383.67333922 228.39797497 383.67229271 C227.35664308 383.67224597 227.35664308 383.67224597 226.29427418 383.67219829 C222.77567264 383.67203208 219.2570711 383.671834 215.73846956 383.67162888 C215.03966274 383.67158899 214.34085591 383.6715491 213.62087312 383.671508 C212.20771546 383.67142712 210.7945578 383.67134353 209.38140015 383.67125721 C187.39445842 383.67003168 165.40757837 383.6850454 143.4206543 383.71240234 C118.71839179 383.74312514 94.01617135 383.76030939 69.31388837 383.7584759 C56.23452631 383.75781146 43.15523382 383.76332726 30.07588768 383.784832 C18.94064633 383.80302276 7.80550609 383.80740839 -3.32974366 383.79381315 C-9.01184378 383.78727302 -14.69374982 383.78720419 -20.3758316 383.80451965 C-25.57772106 383.82020887 -30.77926187 383.81742907 -35.9811426 383.79995139 C-37.86267371 383.79687236 -39.74423058 383.80054774 -41.62573133 383.81167154 C-61.40352114 383.92085459 -61.40352114 383.92085459 -69.546875 376.86328125 C-70.26875 376.01765625 -70.990625 375.17203125 -71.734375 374.30078125 C-72.45625 373.49640625 -73.178125 372.69203125 -73.921875 371.86328125 C-78.07745029 365.98815757 -78.04198033 360.08754373 -78.03515625 353.16015625 C-78.03944138 352.19676331 -78.0437265 351.23337036 -78.04814148 350.24078369 C-78.05386494 348.21359034 -78.05439973 346.18637645 -78.05004883 344.15917969 C-78.04687132 341.04717556 -78.07043314 337.93610669 -78.09570312 334.82421875 C-78.09797445 332.85286578 -78.09868039 330.88151026 -78.09765625 328.91015625 C-78.106866 327.97685486 -78.11607574 327.04355347 -78.12556458 326.08197021 C-78.11933578 325.22057434 -78.11310699 324.35917847 -78.10668945 323.47167969 C-78.10731888 322.71256287 -78.1079483 321.95344604 -78.1085968 321.17132568 C-77.734375 319.30078125 -77.734375 319.30078125 -74.734375 317.30078125 C-71.73168945 317.07373047 -71.73168945 317.07373047 -68.09765625 317.10546875 C-66.79892578 317.11191406 -65.50019531 317.11835938 -64.16210938 317.125 C-62.79036193 317.14171065 -61.41861714 317.15864054 -60.046875 317.17578125 C-58.66341782 317.18581451 -57.27995373 317.19493976 -55.89648438 317.203125 C-52.50894048 317.22673158 -49.12174428 317.25966088 -45.734375 317.30078125 C-45.73589388 316.70651848 -45.73741276 316.11225571 -45.73897767 315.49998498 C-45.82855746 280.25200775 -45.8971553 245.00405016 -45.93863632 209.75598271 C-45.94363894 205.52042709 -45.94881625 201.28487169 -45.95410156 197.04931641 C-45.9551508 196.20612015 -45.95620005 195.3629239 -45.95728108 194.49417624 C-45.97466986 180.85464301 -46.0061991 167.21517746 -46.04298618 153.57568434 C-46.08043817 139.57251695 -46.10261984 125.56938492 -46.11072898 111.5661695 C-46.11620794 102.93061929 -46.13349097 94.29526039 -46.16604087 85.65976909 C-46.18724136 79.73207392 -46.19356257 73.80447716 -46.18838051 67.87674686 C-46.18582729 64.46052965 -46.18964471 61.04464593 -46.2111969 57.62848854 C-46.23118782 53.91459924 -46.22627997 50.20151909 -46.21539307 46.48760986 C-46.22704443 45.42142559 -46.2386958 44.35524132 -46.25070024 43.25674844 C-46.16334294 32.18166658 -43.1813319 22.59112845 -35.734375 14.30078125 C-35.20972656 13.68460938 -34.68507812 13.0684375 -34.14453125 12.43359375 C-24.91647946 2.31530637 -13.10029481 -0.01115837 0 0 Z M-66.734375 328.30078125 C-69.11951418 357.02121488 -69.11951418 357.02121488 -62.734375 368.30078125 C-58.30703079 372.27607866 -54.48058585 372.87786642 -48.72232914 372.80414581 C-47.92903274 372.80995958 -47.13573634 372.81577334 -46.31840065 372.82176328 C-43.65556717 372.8363813 -40.99365284 372.82246986 -38.33082581 372.80871582 C-36.40434975 372.81332403 -34.47787721 372.8196764 -32.55141205 372.8276248 C-27.25385204 372.84435232 -21.95657956 372.83605611 -16.6590184 372.82367992 C-10.94726016 372.81464573 -5.23555206 372.8285911 0.47619629 372.83959961 C11.66726978 372.85740717 22.8582361 372.85353476 34.04931384 372.84194905 C43.14332352 372.83292335 52.23730312 372.83168698 61.33131599 372.83604431 C62.62457569 372.83665724 63.91783539 372.83727018 65.25028478 372.83790168 C67.87735447 372.83918056 70.50442415 372.84047741 73.13149381 372.84179205 C97.07607759 372.85287904 121.02060341 372.84137195 144.96517785 372.82042166 C166.82455421 372.80144124 188.68383735 372.80313559 210.54321289 372.82226562 C235.09970367 372.84368416 259.6561381 372.85210359 284.21263748 372.83981657 C286.83046439 372.83854235 289.44829131 372.83728487 292.06611824 372.83604431 C293.35420282 372.83542721 294.64228741 372.83481011 295.96940486 372.83417431 C305.05375269 372.83071821 314.13806749 372.8365554 323.2224102 372.84596252 C334.29147799 372.85717269 345.36043229 372.85416316 356.42948704 372.83283955 C362.07892784 372.82231567 367.72817932 372.8182302 373.37761879 372.83143616 C378.54734325 372.8433381 383.71670255 372.83683357 388.88639379 372.81552595 C390.75846291 372.81105056 392.63056274 372.81334709 394.50261217 372.8230291 C397.04476111 372.83517019 399.58565482 372.82274169 402.127738 372.80414581 C403.22142571 372.81819281 403.22142571 372.81819281 404.33720812 372.83252358 C409.88330249 372.75127865 412.93080433 371.60205113 417.265625 368.30078125 C423.65076418 357.02121488 423.65076418 357.02121488 421.265625 328.30078125 C260.225625 328.30078125 99.185625 328.30078125 -66.734375 328.30078125 Z " fill="#2D3C64" transform="translate(78.734375,99.69921875)"/>
<path d="M0 0 C11.22 0 22.44 0 34 0 C34 63.03 34 126.06 34 191 C-21.11 191 -76.22 191 -133 191 C-133 190.67 -133 190.34 -133 190 C-89.11 190 -45.22 190 0 190 C0 167.56 0 145.12 0 122 C-16.06429687 122.06960937 -16.06429687 122.06960937 -32.453125 122.140625 C-39.22526425 122.16105562 -45.99738126 122.18047617 -52.76953125 122.1953125 C-63.52595631 122.21906643 -74.28225623 122.24702261 -85.03857422 122.30175781 C-92.87162898 122.34159857 -100.70458243 122.36742637 -108.5377357 122.37635398 C-112.68624711 122.38157345 -116.83446866 122.3938592 -120.98288727 122.42292023 C-124.88661768 122.45004589 -128.78993849 122.45845089 -132.6937542 122.45243073 C-134.12727267 122.45353225 -135.56080467 122.46150347 -136.99424171 122.4768219 C-138.95018253 122.49670089 -140.90634254 122.48955955 -142.86236572 122.48101807 C-144.50500082 122.48654882 -144.50500082 122.48654882 -146.18082047 122.49219131 C-149.67479161 121.88219035 -150.88697659 120.80320192 -153 118 C-152.83849795 114.60845705 -152.41703243 113.41703243 -150 111 C-147.41129875 110.75390434 -147.41129875 110.75390434 -144.06491089 110.75949097 C-142.80003845 110.75674164 -141.53516602 110.75399231 -140.23196411 110.75115967 C-138.82244779 110.75823844 -137.41293242 110.76550806 -136.00341797 110.77294922 C-134.52530932 110.77351311 -133.04720012 110.7731972 -131.5690918 110.77206421 C-127.54862854 110.77148883 -123.52828388 110.78327292 -119.50784826 110.79721212 C-115.30912211 110.80968879 -111.11039344 110.81088756 -106.91165161 110.81326294 C-98.95726565 110.81948674 -91.00293447 110.8359097 -83.04857266 110.85596192 C-73.9942927 110.87829296 -64.94001016 110.8893073 -55.88570952 110.89935279 C-37.25710773 110.92027517 -18.62856027 110.95587001 0 111 C0 103.41 0 95.82 0 88 C-1.8578009 88.00888245 -3.71560181 88.01776489 -5.62969971 88.0269165 C-23.11120195 88.10789412 -40.59266637 88.16815363 -58.07431412 88.20724869 C-67.06247739 88.22788316 -76.05050075 88.2560206 -85.03857422 88.30175781 C-92.87162898 88.34159857 -100.70458243 88.36742637 -108.5377357 88.37635398 C-112.68624711 88.38157345 -116.83446866 88.3938592 -120.98288727 88.42292023 C-124.88661768 88.45004589 -128.78993849 88.45845089 -132.6937542 88.45243073 C-134.12727267 88.45353225 -135.56080467 88.46150347 -136.99424171 88.4768219 C-138.95018253 88.49670089 -140.90634254 88.48955955 -142.86236572 88.48101807 C-144.50500082 88.48654882 -144.50500082 88.48654882 -146.18082047 88.49219131 C-149.67479161 87.88219035 -150.88697659 86.80320192 -153 84 C-152.83849795 80.60845705 -152.41703243 79.41703243 -150 77 C-147.41129875 76.75390434 -147.41129875 76.75390434 -144.06491089 76.75949097 C-142.80003845 76.75674164 -141.53516602 76.75399231 -140.23196411 76.75115967 C-138.82244779 76.75823844 -137.41293242 76.76550806 -136.00341797 76.77294922 C-134.52530932 76.77351311 -133.04720012 76.7731972 -131.5690918 76.77206421 C-127.54862854 76.77148883 -123.52828388 76.78327292 -119.50784826 76.79721212 C-115.30912211 76.80968879 -111.11039344 76.81088756 -106.91165161 76.81326294 C-98.95726565 76.81948674 -91.00293447 76.8359097 -83.04857266 76.85596192 C-72.30230061 76.88246601 -61.55601365 76.89328629 -50.80971718 76.90496635 C-33.87310373 76.92378969 -16.93660589 76.96362934 0 77 C0 51.59 0 26.18 0 0 Z " fill="#CCAD53" transform="translate(332,107)"/>
<path d="M0 0 C1.27768848 -0.00573832 1.27768848 -0.00573832 2.58118886 -0.01159257 C5.44621172 -0.02194245 8.31103492 -0.01792663 11.17607117 -0.01396179 C13.22586758 -0.01830723 15.27566236 -0.02348981 17.32545471 -0.02944946 C22.90196658 -0.04287039 28.47841081 -0.04341458 34.05493569 -0.04088616 C38.70706073 -0.03981832 43.35917198 -0.04469515 48.01129407 -0.04949158 C58.98631484 -0.06059796 69.96130139 -0.06101815 80.93632507 -0.05497742 C92.26354721 -0.04893871 103.59064509 -0.0612435 114.91784602 -0.08254749 C124.63682387 -0.10015558 134.35576215 -0.106166 144.07475537 -0.10290974 C149.88204809 -0.10109512 155.68925223 -0.10375074 161.49653053 -0.11762428 C166.95891772 -0.13018469 172.42111117 -0.12827536 177.88349533 -0.11521339 C179.88861214 -0.11284399 181.8937425 -0.11559529 183.89884377 -0.12383652 C186.63591322 -0.13427502 189.37232917 -0.12622648 192.109375 -0.11352539 C192.90305979 -0.12089968 193.69674457 -0.12827396 194.51448041 -0.13587171 C199.3040014 -0.08911019 202.60572911 0.59617938 206.74516296 3.26069641 C209.54867048 7.46595768 209.15051485 11.00095955 209.18266296 15.94819641 C209.21553406 16.82153625 209.24840515 17.6948761 209.28227234 18.59468079 C209.33549392 25.07319895 207.85010587 29.2342821 203.74516296 34.26069641 C197.96338787 39.75338275 192.71990403 40.55605808 184.94369507 40.50120544 C184.05737563 40.50291429 183.1710562 40.50462314 182.2578786 40.50638378 C179.28830713 40.50967774 176.31896166 40.49867644 173.34941101 40.48774719 C171.2206218 40.48718306 169.0918322 40.48749968 166.96304321 40.4886322 C161.18249789 40.48920663 155.40203537 40.47743767 149.62150931 40.46348429 C143.58101046 40.45099199 137.54050977 40.44980761 131.5 40.44743347 C120.06079075 40.44121429 108.62161966 40.42479753 97.18242723 40.40473449 C84.15958977 40.38238913 71.13675049 40.37138549 58.11389863 40.36134362 C31.3242989 40.34043171 4.53473307 40.3052472 -22.25483704 40.26069641 C-21.8294162 39.38275925 -21.40399536 38.50482208 -20.96568298 37.60028076 C-20.41480011 36.44077408 -19.86391724 35.2812674 -19.29634094 34.08662415 C-18.7471701 32.94056198 -18.19799927 31.79449982 -17.63218689 30.6137085 C-15.76913226 26.07829966 -15.50018159 22.16501683 -15.62983704 17.32319641 C-15.73132208 11.0463467 -15.51263002 7.29472964 -11.25483704 2.26069641 C-7.45095274 -0.27522645 -4.40707472 -0.0208099 0 0 Z " fill="#7AFDCC" transform="translate(207.2548370361328,307.7393035888672)"/>
<path d="M0 0 C3.3 0 6.6 0 10 0 C11.75 2.375 11.75 2.375 13 5 C13.886875 5.28875 14.77375 5.5775 15.6875 5.875 C23.90506742 8.66587195 28.05662475 15.10502267 31.87109375 22.546875 C33.82148394 26.78509313 34.12379822 29.94813337 34.12025452 34.58683777 C34.12110894 35.25910363 34.12196337 35.93136949 34.12284368 36.62400705 C34.12449341 38.88111953 34.11898541 41.13815802 34.11352539 43.39526367 C34.11324338 45.01144916 34.11340152 46.62763478 34.1139679 48.24382019 C34.11425534 52.63607562 34.1083671 57.02830387 34.10139394 61.42055297 C34.09515166 66.00898969 34.09455591 70.597427 34.09336853 75.18586731 C34.0902578 83.8768518 34.08204788 92.56782375 34.07201904 101.25880271 C34.0608499 111.15227363 34.05534543 121.04574514 34.05032361 130.93922079 C34.03986507 151.29282242 34.02152278 171.64640685 34 192 C22.78 192 11.56 192 0 192 C0 128.64 0 65.28 0 0 Z " fill="#F3F3F3" transform="translate(377,105)"/>
<path d="M0 0 C1.59338699 -0.01925285 1.59338699 -0.01925285 3.21896362 -0.03889465 C4.37405426 -0.04628159 5.5291449 -0.05366852 6.71923828 -0.0612793 C8.50347702 -0.07338692 8.50347702 -0.07338692 10.32376099 -0.08573914 C12.85075416 -0.09959646 15.37776619 -0.1103112 17.90478516 -0.11816406 C21.73914182 -0.13527312 25.57261293 -0.17913355 29.40673828 -0.22338867 C31.86506529 -0.23352468 34.32339962 -0.24203793 36.78173828 -0.2487793 C37.91658661 -0.26628738 39.05143494 -0.28379547 40.22067261 -0.30183411 C51.62501491 -0.27133054 61.35357174 2.48694502 69.91455078 10.17700195 C70.53072266 10.70165039 71.14689453 11.22629883 71.78173828 11.7668457 C79.13512695 18.47326241 83.47658883 27.89785954 84.16902637 37.82546616 C84.17107924 39.1351247 84.17313211 40.44478325 84.17524719 41.79412842 C84.18098551 42.89635864 84.18098551 42.89635864 84.18683976 44.02085614 C84.19710112 46.46588264 84.19319088 48.91067129 84.18920898 51.35571289 C84.19355905 53.11540442 84.19874318 54.87509405 84.20469666 56.63478088 C84.21806066 61.40096615 84.21866862 66.16707201 84.21613336 70.93327236 C84.2150627 74.91235785 84.21994903 78.89142733 84.22473878 82.87050939 C84.23582321 92.25279648 84.2362762 101.63504352 84.23022461 111.01733398 C84.22417364 120.70307972 84.23652671 130.3886806 84.25779468 140.07440162 C84.27538498 148.39045379 84.28141644 156.70645974 84.27815694 165.02252984 C84.27634111 169.98962615 84.27901074 174.95661893 84.29287148 179.92369843 C84.30540475 184.58916728 84.30354867 189.25440901 84.29046059 193.91987419 C84.28808606 195.63438174 84.29086065 197.34890507 84.29908371 199.06339455 C84.30947848 201.39846678 84.30151025 203.73276637 84.28877258 206.06781006 C84.28894032 207.3759605 84.28910807 208.68411095 84.28928089 210.03190231 C83.91455078 213.17700195 83.91455078 213.17700195 82.58256817 215.12913895 C80.91455078 216.17700195 80.91455078 216.17700195 77.85205078 216.05200195 C74.91455078 215.17700195 74.91455078 215.17700195 72.91455078 212.17700195 C72.664011 209.06872368 72.664011 209.06872368 72.66299438 205.15719604 C72.66002425 204.43819409 72.65705411 203.71919214 72.65399396 202.97840226 C72.64633901 200.56258816 72.65285415 198.14701612 72.65917969 195.73120117 C72.6564304 194.00153946 72.65275087 192.27187901 72.64820862 190.54222107 C72.64008766 186.81320364 72.63793046 183.08424621 72.64015579 179.35522079 C72.64298619 173.4547917 72.62864584 167.55448262 72.61117554 161.65408325 C72.56412644 144.87398086 72.54021632 128.09388609 72.53369141 111.3137207 C72.52993685 102.04928953 72.51187287 92.78499366 72.47859704 83.52062047 C72.45840734 77.65979003 72.45600138 71.79930916 72.46687722 65.9384582 C72.46949104 62.28326949 72.45544695 58.62828267 72.43679619 54.97314644 C72.43148953 53.28374659 72.4329448 51.5943092 72.44183159 49.90492439 C72.49733786 38.42260062 71.57836395 30.20935319 63.91455078 21.17700195 C63.91455078 20.51700195 63.91455078 19.85700195 63.91455078 19.17700195 C63.33833984 18.88954102 62.76212891 18.60208008 62.16845703 18.3059082 C60.73665253 17.58876522 59.30673042 16.86784188 57.87939453 16.1418457 C57.21037109 15.80282227 56.54134766 15.46379883 55.85205078 15.11450195 C55.18044922 14.77290039 54.50884766 14.43129883 53.81689453 14.0793457 C50.29141622 12.40709624 47.51741026 12.0493635 43.66455078 12.03515625 C42.59333984 12.0281218 41.52212891 12.02108734 40.41845703 12.01383972 C39.26216797 12.00967545 38.10587891 12.00551117 36.91455078 12.0012207 C34.47704205 11.97803203 32.03954201 11.95391509 29.60205078 11.92895508 C25.75042833 11.89375684 21.89912744 11.8644484 18.04736328 11.85107422 C14.33602917 11.83565776 10.62563775 11.795497 6.91455078 11.7512207 C5.75826172 11.75312912 4.60197266 11.75503754 3.41064453 11.75700378 C2.33943359 11.74051285 1.26822266 11.72402191 0.16455078 11.70703125 C-0.77904297 11.70116501 -1.72263672 11.69529877 -2.69482422 11.68925476 C-5.08544922 11.17700195 -5.08544922 11.17700195 -6.92529297 9.34309387 C-8.55674571 6.29705883 -8.02439248 4.42719018 -7.08544922 1.17700195 C-4.57158401 -0.07993065 -2.81378845 0.02957981 0 0 Z " fill="#2B3C65" transform="translate(395.08544921875,99.822998046875)"/>
<path d="M0 0 C161.04 0 322.08 0 488 0 C488 32 488 32 484 40 C478.17394448 44.76998005 472.68907653 44.53333038 465.37890625 44.390625 C464.27900864 44.38496521 463.17911102 44.37930542 462.04588318 44.37347412 C458.55096961 44.35117743 455.05710097 44.30099149 451.5625 44.25 C449.18556174 44.22992642 446.80860732 44.21167716 444.43164062 44.1953125 C438.62074038 44.15133462 432.81044487 44.08448909 427 44 C428.00911458 42.30729167 429.01822917 40.61458333 430.02734375 38.921875 C435.42963392 28.24747033 432.78296007 7.94527763 433 1 C290.11 1 147.22 1 0 1 C0 0.67 0 0.34 0 0 Z " fill="#D15552" transform="translate(12,428)"/>
<path d="M0 0 C0.64479343 -0.00311998 1.28958685 -0.00623996 1.95391947 -0.00945449 C4.12428372 -0.01746055 6.29437039 -0.01110086 8.46473694 -0.00482178 C10.01679651 -0.00753052 11.5688548 -0.01109079 13.12091064 -0.01544189 C17.34403134 -0.0245829 21.56705464 -0.02101443 25.79017711 -0.01468372 C30.20371822 -0.00963166 34.61725081 -0.01431304 39.03079224 -0.01745605 C46.44466148 -0.0210984 53.85849092 -0.01628997 61.27235413 -0.0067749 C69.84973084 0.00410616 78.42701245 0.00058769 87.00438684 -0.01042771 C94.36068472 -0.01949773 101.71695394 -0.02078715 109.0732556 -0.01555037 C113.47031022 -0.01242858 117.86732011 -0.01202697 122.26437187 -0.01862335 C126.39870094 -0.0243919 130.5329072 -0.02040896 134.66722298 -0.00883484 C136.18660401 -0.00618544 137.70599535 -0.0069581 139.22537231 -0.01136017 C141.29565243 -0.01680625 143.36553631 -0.00999323 145.43579102 0 C146.59557433 0.00075405 147.75535765 0.0015081 148.95028591 0.002285 C151.78138733 0.25396729 151.78138733 0.25396729 154.78138733 2.25396729 C155.09388733 5.25396729 155.09388733 5.25396729 154.78138733 8.25396729 C152.00626288 11.02909173 150.36924743 10.50787153 146.4801178 10.5146637 C145.8264517 10.51848924 145.17278561 10.52231479 144.49931145 10.52625626 C142.29898518 10.53661277 140.09891857 10.53258923 137.89857483 10.52862549 C136.32518776 10.53297047 134.7518028 10.5381529 133.17842102 10.54411316 C128.89752623 10.55753652 124.61671954 10.5580782 120.3358078 10.55554986 C116.76695731 10.55448254 113.19812483 10.55935731 109.62927818 10.56415528 C101.21317074 10.57526173 92.79710793 10.5756813 84.3809967 10.56964111 C75.68655381 10.56359733 66.99227259 10.57591996 58.29785728 10.59721118 C50.84305982 10.61479833 43.38831394 10.62083317 35.93349648 10.61757344 C31.47664116 10.61575602 27.01990119 10.61844226 22.56306458 10.63228798 C18.3737063 10.64481514 14.18460104 10.64297112 9.99524689 10.62987709 C8.45447964 10.62750065 6.91369486 10.63028393 5.37294769 10.63850021 C3.27588573 10.64887999 1.1796867 10.6409394 -0.91734314 10.62818909 C-2.09279694 10.62835683 -3.26825073 10.62852457 -4.47932434 10.6286974 C-5.38328949 10.50503646 -6.28725464 10.38137552 -7.21861267 10.25396729 C-9.21861267 7.25396729 -9.21861267 7.25396729 -8.96861267 4.69146729 C-7.404783 -0.39097913 -4.8045008 0.00312474 0 0 Z " fill="#2B3C64" transform="translate(188.21861267089844,217.74603271484375)"/>
<path d="M0 0 C0.64479343 -0.00311998 1.28958685 -0.00623996 1.95391947 -0.00945449 C4.12428372 -0.01746055 6.29437039 -0.01110086 8.46473694 -0.00482178 C10.01679651 -0.00753052 11.5688548 -0.01109079 13.12091064 -0.01544189 C17.34403134 -0.0245829 21.56705464 -0.02101443 25.79017711 -0.01468372 C30.20371822 -0.00963166 34.61725081 -0.01431304 39.03079224 -0.01745605 C46.44466148 -0.0210984 53.85849092 -0.01628997 61.27235413 -0.0067749 C69.84973084 0.00410616 78.42701245 0.00058769 87.00438684 -0.01042771 C94.36068472 -0.01949773 101.71695394 -0.02078715 109.0732556 -0.01555037 C113.47031022 -0.01242858 117.86732011 -0.01202697 122.26437187 -0.01862335 C126.39870094 -0.0243919 130.5329072 -0.02040896 134.66722298 -0.00883484 C136.18660401 -0.00618544 137.70599535 -0.0069581 139.22537231 -0.01136017 C141.29565243 -0.01680625 143.36553631 -0.00999323 145.43579102 0 C146.59557433 0.00075405 147.75535765 0.0015081 148.95028591 0.002285 C151.78138733 0.25396729 151.78138733 0.25396729 154.78138733 2.25396729 C155.09388733 5.25396729 155.09388733 5.25396729 154.78138733 8.25396729 C152.00626288 11.02909173 150.36924743 10.50787153 146.4801178 10.5146637 C145.8264517 10.51848924 145.17278561 10.52231479 144.49931145 10.52625626 C142.29898518 10.53661277 140.09891857 10.53258923 137.89857483 10.52862549 C136.32518776 10.53297047 134.7518028 10.5381529 133.17842102 10.54411316 C128.89752623 10.55753652 124.61671954 10.5580782 120.3358078 10.55554986 C116.76695731 10.55448254 113.19812483 10.55935731 109.62927818 10.56415528 C101.21317074 10.57526173 92.79710793 10.5756813 84.3809967 10.56964111 C75.68655381 10.56359733 66.99227259 10.57591996 58.29785728 10.59721118 C50.84305982 10.61479833 43.38831394 10.62083317 35.93349648 10.61757344 C31.47664116 10.61575602 27.01990119 10.61844226 22.56306458 10.63228798 C18.3737063 10.64481514 14.18460104 10.64297112 9.99524689 10.62987709 C8.45447964 10.62750065 6.91369486 10.63028393 5.37294769 10.63850021 C3.27588573 10.64887999 1.1796867 10.6409394 -0.91734314 10.62818909 C-2.09279694 10.62835683 -3.26825073 10.62852457 -4.47932434 10.6286974 C-5.38328949 10.50503646 -6.28725464 10.38137552 -7.21861267 10.25396729 C-9.21861267 7.25396729 -9.21861267 7.25396729 -8.96861267 4.69146729 C-7.404783 -0.39097913 -4.8045008 0.00312474 0 0 Z " fill="#2B3C64" transform="translate(188.21861267089844,183.74603271484375)"/>
<path d="M0 0 C0.33 2.31 0.66 4.62 1 7 C1.83144531 6.96519531 2.66289062 6.93039063 3.51953125 6.89453125 C5.14955078 6.85392578 5.14955078 6.85392578 6.8125 6.8125 C7.89144531 6.77769531 8.97039062 6.74289063 10.08203125 6.70703125 C13 7 13 7 14.90234375 8.31640625 C16 10 16 10 15.75 13.125 C15 16 15 16 14 17 C12.41361159 17.13305676 10.8218536 17.20335559 9.23046875 17.24609375 C7.77350586 17.29540039 7.77350586 17.29540039 6.28710938 17.34570312 C4.23252411 17.40655096 2.17783153 17.46388394 0.12304688 17.51757812 C-0.85212891 17.55173828 -1.82730469 17.58589844 -2.83203125 17.62109375 C-4.17358276 17.65867798 -4.17358276 17.65867798 -5.54223633 17.69702148 C-8.17282072 18.02130431 -9.81787289 18.49560574 -12 20 C-12.91214879 23.85909105 -13.26132231 26.21603308 -12 30 C-8.61563043 32.25624638 -7.22425356 32.24386981 -3.25 32.375 C3.64460303 32.85795528 7.52023046 34.31916806 12.3125 39.5 C12.869375 40.325 13.42625 41.15 14 42 C14.4125 42.598125 14.825 43.19625 15.25 43.8125 C17.34530434 49.92380431 16.07671586 55.31573214 13.33984375 60.9453125 C11.22362919 64.19058614 8.55507406 66.44855321 5 68 C3.68 68 2.36 68 1 68 C1.061875 68.928125 1.12375 69.85625 1.1875 70.8125 C1 74 1 74 -0.1875 75.875 C-2.65507108 77.40659584 -4.14519831 77.42822025 -7 77 C-8.8125 75.8125 -8.8125 75.8125 -10 74 C-10.04731525 72.33400509 -10.05180256 70.66586142 -10 69 C-10.84304687 69.02320313 -11.68609375 69.04640625 -12.5546875 69.0703125 C-13.65039062 69.08835937 -14.74609375 69.10640625 -15.875 69.125 C-17.51082031 69.15980469 -17.51082031 69.15980469 -19.1796875 69.1953125 C-22 69 -22 69 -24 67 C-24.3125 63.5 -24.3125 63.5 -24 60 C-20.75372411 57.83581607 -19.75987792 57.74366473 -16 57.69140625 C-15.030625 57.66626953 -14.06125 57.64113281 -13.0625 57.61523438 C-11.02089684 57.58007922 -8.97922271 57.54882888 -6.9375 57.52148438 C-5.968125 57.49505859 -4.99875 57.46863281 -4 57.44140625 C-3.113125 57.42795166 -2.22625 57.41449707 -1.3125 57.40063477 C1.4680469 56.91891206 2.36542475 56.27546277 4 54 C4.58333333 50.5 4.58333333 50.5 4 47 C1.78276222 44.74649898 0.45900558 44.05114823 -2.69921875 43.69921875 C-4.17841797 43.69341797 -4.17841797 43.69341797 -5.6875 43.6875 C-12.16108606 43.29180403 -16.25406947 41.39206729 -21 37 C-24.69142299 32.41368659 -24.73766293 26.99235451 -24.61328125 21.27734375 C-23.57293591 15.71779126 -20.47064174 12.30891584 -16 9 C-12.5 7.9375 -12.5 7.9375 -10 8 C-10.061875 7.071875 -10.12375 6.14375 -10.1875 5.1875 C-10 2 -10 2 -8.9375 0.0625 C-5.87530347 -1.61676907 -3.30629059 -0.68621125 0 0 Z " fill="#303F64" transform="translate(219,76)"/>
<path d="M0 0 C5.86970122 4.87336087 11.26604835 10.12056808 16.65234375 15.51953125 C18.00254356 16.86829597 18.00254356 16.86829597 19.38002014 18.24430847 C21.26964342 20.13325439 23.15823816 22.02316308 25.04516602 23.91479492 C27.46847733 26.34385209 29.89631743 28.76832574 32.32547665 31.19153309 C34.64518724 33.50677961 36.961105 35.82581218 39.27734375 38.14453125 C40.15220932 39.01737259 41.02707489 39.89021393 41.92845154 40.789505 C42.72670853 41.59091415 43.52496552 42.3923233 44.34741211 43.21801758 C45.40828285 44.28008171 45.40828285 44.28008171 46.49058533 45.36360168 C48 47 48 47 48 48 C42.11018515 48.12375961 36.22112988 48.21441514 30.33032227 48.2746582 C28.32725844 48.2997755 26.32428602 48.33387595 24.3215332 48.37719727 C21.43938634 48.43797188 18.55845279 48.46623732 15.67578125 48.48828125 C14.33644279 48.52699089 14.33644279 48.52699089 12.970047 48.56648254 C8.44912271 48.56851391 6.61564873 48.48679776 2.95776367 45.59448242 C-0.47545102 41.04469161 -0.12983661 37.36323568 -0.09765625 31.8359375 C-0.0962413 30.92872955 -0.09482635 30.02152161 -0.09336853 29.08682251 C-0.08776096 26.18284845 -0.07520718 23.27895085 -0.0625 20.375 C-0.05748598 18.40885528 -0.0529229 16.44270935 -0.04882812 14.4765625 C-0.03778906 9.6510121 -0.02051935 4.82551903 0 0 Z " fill="#7AFDCC" transform="translate(310,48)"/>
<path d="M0 0 C0.97585304 -0.00525696 0.97585304 -0.00525696 1.97142029 -0.01062012 C4.12623705 -0.01943723 6.28072666 -0.01358856 8.43554688 -0.00683594 C9.93005435 -0.0081826 11.42456141 -0.01012314 12.91906738 -0.01263428 C16.0530209 -0.0155855 19.18686049 -0.01128801 22.32080078 -0.00195312 C26.34279701 0.0094415 30.36452633 0.00288201 34.38651276 -0.00909805 C37.47310404 -0.01631674 40.5596318 -0.0140287 43.64622498 -0.00884247 C45.12943045 -0.00750599 46.61264166 -0.00915363 48.09584045 -0.01380157 C50.16691419 -0.01886705 52.23755254 -0.01115678 54.30859375 0 C55.48836792 0.00159119 56.66814209 0.00318237 57.88366699 0.00482178 C60.65429688 0.25878906 60.65429688 0.25878906 62.65429688 2.25878906 C62.90429688 5.25878906 62.90429688 5.25878906 62.65429688 8.25878906 C59.85970668 11.05337926 58.13171202 10.51838509 54.21679688 10.53344727 C53.22631348 10.54111366 53.22631348 10.54111366 52.21582031 10.54893494 C50.02855419 10.56285909 47.84160211 10.5618723 45.65429688 10.55957031 C44.13736859 10.56345536 42.6204414 10.56778963 41.10351562 10.57255554 C37.92249018 10.58002356 34.74157572 10.57972206 31.56054688 10.57446289 C27.47793274 10.56866372 23.39577161 10.58560681 19.31323242 10.60880756 C16.18031139 10.6235162 13.04750022 10.62442062 9.91455078 10.62129784 C8.40900779 10.62181238 6.90345886 10.62707494 5.39794922 10.63710976 C3.29559598 10.64940363 1.1941351 10.64272653 -0.90820312 10.63110352 C-2.10574219 10.63173294 -3.30328125 10.63236237 -4.53710938 10.63301086 C-5.46394531 10.50951767 -6.39078125 10.38602448 -7.34570312 10.25878906 C-9.34570312 7.25878906 -9.34570312 7.25878906 -9.09570312 4.69628906 C-7.51754868 -0.43271287 -4.84184041 0.00653029 0 0 Z " fill="#2B3C64" transform="translate(188.345703125,251.7412109375)"/>
<path d="M0 0 C9.24 0 18.48 0 28 0 C28 9.24 28 18.48 28 28 C23.7154194 24.32750234 19.68519905 20.81271048 15.72265625 16.85546875 C14.33530273 15.47004883 14.33530273 15.47004883 12.91992188 14.05664062 C12.45126709 13.58589111 11.9826123 13.1151416 11.49975586 12.63012695 C10.04460429 11.16953741 8.58408143 9.71446797 7.12304688 8.25976562 C5.74922852 6.88401367 5.74922852 6.88401367 4.34765625 5.48046875 C3.51242432 4.64410889 2.67719238 3.80774902 1.81665039 2.94604492 C0 1 0 1 0 0 Z " fill="#D1B052" transform="translate(271,40)"/>
<path d="M0 0 C1.9943416 3.9886832 1.18485036 9.05234082 1.1875 13.4375 C1.19974609 14.50033203 1.21199219 15.56316406 1.22460938 16.65820312 C1.22750977 18.18670898 1.22750977 18.18670898 1.23046875 19.74609375 C1.23457764 20.68122803 1.23868652 21.6163623 1.24291992 22.57983398 C1 25 1 25 -1 28 C-6.09572202 28.65051771 -6.09572202 28.65051771 -8.66430664 26.80273438 C-11.41204928 23.09421095 -10.46722497 17.93712686 -10.4375 13.5 C-10.45748047 12.44167969 -10.47746094 11.38335937 -10.49804688 10.29296875 C-10.49740234 9.27847656 -10.49675781 8.26398438 -10.49609375 7.21875 C-10.49794678 6.28998047 -10.4997998 5.36121094 -10.50170898 4.40429688 C-10 2 -10 2 -8.16821289 0.16210938 C-5.12078883 -1.4712358 -3.25226649 -0.93954365 0 0 Z " fill="#2C3D65" transform="translate(478,352)"/>
</svg>
